<svg id="svg" version="1.1" xmlns="http://www.w3.org/2000/svg" xmlns:xlink="http://www.w3.org/1999/xlink" width="400" height="400" viewBox="0, 0, 400,400"><g id="svgg"><path id="path0" d="M104.000 99.662 C 61.867 101.271,36.765 115.592,31.192 141.200 C 31.025 141.970,30.605 143.884,30.259 145.454 C 24.869 169.921,33.008 194.081,51.163 207.508 C 57.038 211.853,73.365 220.800,75.419 220.800 C 75.562 220.800,76.336 221.088,77.140 221.441 C 77.943 221.793,78.960 222.236,79.400 222.424 C 79.840 222.612,85.690 224.680,92.400 227.020 C 112.584 234.058,116.786 236.887,116.798 243.450 C 116.809 249.742,112.398 252.521,102.418 252.510 C 91.482 252.498,88.190 250.209,86.437 241.400 L 85.800 238.200 58.600 238.200 L 31.400 238.200 31.297 262.868 L 31.194 287.537 35.297 289.134 C 46.999 293.690,65.925 297.827,83.000 299.561 C 110.108 302.316,134.423 300.764,151.200 295.210 C 180.310 285.573,193.975 265.629,193.077 234.089 C 192.476 212.972,184.396 198.023,168.058 187.800 C 167.707 187.580,166.399 186.731,165.152 185.914 C 160.744 183.024,149.367 177.982,140.200 174.856 C 138.880 174.406,134.650 172.942,130.800 171.603 C 126.950 170.264,121.924 168.532,119.632 167.754 C 108.862 164.100,105.600 161.381,105.600 156.057 C 105.600 149.567,111.332 146.794,122.200 148.026 C 125.692 148.422,126.289 148.588,129.143 149.956 C 132.061 151.354,134.400 155.195,134.400 158.586 C 134.400 160.520,133.134 160.435,160.200 160.310 L 184.200 160.200 184.200 137.675 L 184.200 115.150 181.800 113.861 C 167.827 106.352,147.725 101.370,126.000 100.029 C 115.956 99.409,112.239 99.347,104.000 99.662 M289.800 99.621 C 283.436 99.938,277.221 100.536,273.400 101.200 C 272.300 101.391,270.140 101.753,268.600 102.004 C 267.060 102.255,265.350 102.604,264.800 102.781 C 264.250 102.957,262.810 103.323,261.600 103.595 C 244.886 107.352,228.229 117.783,218.161 130.800 C 211.491 139.424,205.657 152.126,202.822 164.200 C 202.564 165.300,202.201 166.830,202.016 167.600 C 198.104 183.840,198.027 213.014,201.846 232.200 C 202.904 237.516,203.278 239.028,204.814 244.200 C 209.450 259.806,220.236 275.168,232.200 283.204 C 233.300 283.943,234.290 284.650,234.400 284.775 C 234.964 285.417,239.581 287.977,244.200 290.209 C 259.679 297.688,275.371 300.807,297.486 300.802 C 302.813 300.801,309.023 300.616,311.286 300.392 C 320.220 299.505,323.466 299.129,325.000 298.803 C 325.880 298.616,327.680 298.261,329.000 298.014 C 343.707 295.256,360.190 289.412,369.501 283.652 L 371.202 282.600 371.101 250.200 L 371.000 217.800 341.644 217.697 C 321.116 217.626,312.132 217.724,311.769 218.026 C 311.368 218.358,311.219 221.396,311.116 231.328 C 310.987 243.760,310.949 244.296,310.008 247.000 C 305.598 259.663,283.288 259.805,278.895 247.198 C 277.246 242.468,277.158 239.718,277.314 198.000 C 277.474 155.283,277.430 156.186,279.612 151.728 C 284.383 141.984,303.150 141.264,308.629 150.614 C 310.776 154.277,310.927 155.322,311.172 168.200 L 311.400 180.200 341.300 180.303 L 371.200 180.405 371.200 149.205 L 371.200 118.005 369.584 116.834 C 366.003 114.240,355.776 109.810,346.800 106.964 C 345.810 106.651,344.460 106.222,343.800 106.012 C 341.661 105.330,333.471 103.322,330.800 102.824 C 329.370 102.558,327.390 102.186,326.400 101.999 C 324.358 101.613,320.103 101.006,315.400 100.429 C 313.640 100.213,309.230 99.930,305.600 99.799 C 301.970 99.668,298.370 99.503,297.600 99.432 C 296.830 99.361,293.320 99.446,289.800 99.621 " stroke="none" fill="#fcfbfb" fill-rule="evenodd"></path><path id="path1" d="M0.000 200.000 L 0.000 400.000 200.000 400.000 L 400.000 400.000 400.000 200.000 L 400.000 0.000 200.000 0.000 L 0.000 0.000 0.000 200.000 M126.000 100.029 C 135.041 100.587,141.805 101.466,150.200 103.174 C 162.795 105.737,173.281 109.283,181.800 113.861 L 184.200 115.150 184.200 137.675 L 184.200 160.200 160.200 160.310 C 133.134 160.435,134.400 160.520,134.400 158.586 C 134.400 155.195,132.061 151.354,129.143 149.956 C 126.289 148.588,125.692 148.422,122.200 148.026 C 111.332 146.794,105.600 149.567,105.600 156.057 C 105.600 161.381,108.862 164.100,119.632 167.754 C 121.924 168.532,126.950 170.264,130.800 171.603 C 134.650 172.942,138.880 174.406,140.200 174.856 C 149.367 177.982,160.744 183.024,165.152 185.914 C 166.399 186.731,167.707 187.580,168.058 187.800 C 184.396 198.023,192.476 212.972,193.077 234.089 C 193.776 258.636,186.215 275.114,168.921 286.735 C 157.914 294.131,145.080 298.157,126.000 300.199 C 99.620 303.021,57.897 297.932,35.297 289.134 L 31.194 287.537 31.297 262.868 L 31.400 238.200 58.600 238.200 L 85.800 238.200 86.437 241.400 C 88.190 250.209,91.482 252.498,102.418 252.510 C 112.398 252.521,116.809 249.742,116.798 243.450 C 116.786 236.887,112.584 234.058,92.400 227.020 C 85.690 224.680,79.840 222.612,79.400 222.424 C 78.960 222.236,77.943 221.793,77.140 221.441 C 76.336 221.088,75.562 220.800,75.419 220.800 C 73.365 220.800,57.038 211.853,51.163 207.508 C 33.008 194.081,24.869 169.921,30.259 145.454 C 30.605 143.884,31.025 141.970,31.192 141.200 C 37.714 111.234,71.289 96.653,126.000 100.029 M305.600 99.799 C 309.230 99.930,313.640 100.213,315.400 100.429 C 320.103 101.006,324.358 101.613,326.400 101.999 C 327.390 102.186,329.370 102.558,330.800 102.824 C 333.471 103.322,341.661 105.330,343.800 106.012 C 344.460 106.222,345.810 106.651,346.800 106.964 C 355.776 109.810,366.003 114.240,369.584 116.834 L 371.200 118.005 371.200 149.205 L 371.200 180.405 341.300 180.303 L 311.400 180.200 311.172 168.200 C 310.927 155.322,310.776 154.277,308.629 150.614 C 303.150 141.264,284.383 141.984,279.612 151.728 C 277.430 156.186,277.474 155.283,277.314 198.000 C 277.158 239.718,277.246 242.468,278.895 247.198 C 283.288 259.805,305.598 259.663,310.008 247.000 C 310.949 244.296,310.987 243.760,311.116 231.328 C 311.219 221.396,311.368 218.358,311.769 218.026 C 312.132 217.724,321.116 217.626,341.644 217.697 L 371.000 217.800 371.101 250.200 L 371.202 282.600 369.501 283.652 C 361.319 288.713,348.726 293.470,334.800 296.760 C 332.930 297.202,330.320 297.766,329.000 298.014 C 327.680 298.261,325.880 298.616,325.000 298.803 C 323.466 299.129,320.220 299.505,311.286 300.392 C 295.720 301.937,271.978 300.002,259.600 296.179 C 250.274 293.300,236.356 287.001,234.400 284.775 C 234.290 284.650,233.300 283.943,232.200 283.204 C 220.236 275.168,209.450 259.806,204.814 244.200 C 202.091 235.031,200.840 228.368,199.558 216.200 C 198.949 210.420,198.946 190.692,199.554 184.600 C 200.209 178.030,201.272 170.687,202.016 167.600 C 202.201 166.830,202.564 165.300,202.822 164.200 C 205.657 152.126,211.491 139.424,218.161 130.800 C 228.229 117.783,244.886 107.352,261.600 103.595 C 262.810 103.323,264.250 102.957,264.800 102.781 C 265.350 102.604,267.060 102.255,268.600 102.004 C 270.140 101.753,272.300 101.391,273.400 101.200 C 279.006 100.226,294.193 99.117,297.600 99.432 C 298.370 99.503,301.970 99.668,305.600 99.799 " stroke="none" fill="#f4345c" fill-rule="evenodd"></path></g></svg>