<svg id="svg" xmlns="http://www.w3.org/2000/svg" xmlns:xlink="http://www.w3.org/1999/xlink" width="400" height="144.0625" viewBox="0, 0, 400,144.0625"><g id="svgg"><path id="path0" d="M300.625 0.208 C 251.461 2.316,186.038 10.873,125.313 23.136 C 107.100 26.815,107.986 26.597,107.869 27.422 C 107.735 28.362,107.208 28.412,120.006 26.267 C 176.861 16.738,236.042 12.111,272.049 14.378 C 323.096 17.592,340.606 32.088,323.706 57.142 C 322.506 58.922,321.567 60.403,321.621 60.435 C 325.558 62.752,329.461 67.763,331.271 72.825 C 331.905 74.595,332.396 75.539,332.619 75.413 C 335.015 74.051,348.815 64.241,354.576 59.803 C 406.914 19.492,394.459 -0.267,316.918 0.060 C 309.074 0.093,301.742 0.160,300.625 0.208 M32.656 59.406 C 15.498 61.489,3.705 69.859,0.594 82.161 C -2.954 96.192,7.715 106.127,27.344 107.071 C 31.033 107.248,44.176 106.739,45.104 106.383 C 45.477 106.240,47.775 94.527,47.481 94.269 C 47.406 94.203,45.867 94.420,44.063 94.751 C 27.138 97.855,16.658 91.332,21.657 80.806 C 26.190 71.261,39.574 67.419,50.546 72.512 C 53.086 73.691,53.126 73.699,53.279 73.026 C 53.915 70.233,55.221 61.993,55.053 61.836 C 54.716 61.521,50.958 60.352,48.590 59.826 C 45.910 59.230,36.205 58.975,32.656 59.406 M302.578 59.708 C 285.742 61.897,272.846 77.842,273.528 95.625 C 274.144 111.685,285.339 120.562,301.919 118.137 C 317.139 115.912,328.691 103.214,329.936 87.344 L 330.156 84.531 332.451 84.439 C 336.191 84.288,336.141 84.068,334.240 92.291 C 333.479 95.586,331.917 102.352,330.769 107.327 C 329.622 112.303,328.613 116.556,328.527 116.780 C 328.404 117.100,329.117 117.188,331.836 117.188 C 335.172 117.188,335.307 117.161,335.466 116.484 C 335.557 116.098,336.404 112.055,337.348 107.502 L 339.065 99.222 344.767 93.496 C 352.617 85.613,355.808 83.270,357.823 83.910 C 359.634 84.484,359.306 86.673,355.312 100.625 C 351.717 113.186,351.461 115.766,353.638 117.479 C 356.687 119.877,362.046 117.475,365.796 112.031 C 367.233 109.944,367.273 109.940,367.981 111.797 C 371.796 121.801,388.591 119.815,395.403 108.553 C 396.739 106.345,396.788 106.080,395.940 105.626 C 395.396 105.335,394.975 105.639,392.581 108.051 C 384.066 116.628,373.750 114.427,373.750 104.032 C 373.750 100.652,373.768 100.625,376.049 100.623 C 383.323 100.616,392.628 97.598,396.446 94.006 C 401.795 88.976,401.239 81.270,395.366 79.042 C 383.664 74.601,367.468 88.962,366.739 104.425 C 366.477 109.993,359.688 116.149,359.688 110.819 C 359.688 110.108,360.936 104.957,362.462 99.373 C 367.344 81.505,367.425 79.511,363.314 78.404 C 359.111 77.272,353.939 80.412,345.165 89.422 C 342.280 92.384,339.998 94.535,340.093 94.201 C 340.189 93.867,340.712 91.555,341.255 89.063 C 341.798 86.570,342.582 83.170,342.996 81.506 C 343.411 79.842,343.750 78.417,343.750 78.339 C 343.750 78.261,342.449 78.608,340.859 79.111 C 339.270 79.614,336.195 80.496,334.027 81.072 L 330.086 82.120 329.893 79.888 C 328.694 66.020,317.521 57.765,302.578 59.708 M254.688 59.793 C 254.688 59.905,252.859 70.172,250.625 82.609 C 248.391 95.045,246.563 105.541,246.563 105.933 L 246.563 106.646 254.842 106.502 C 259.396 106.422,263.178 106.298,263.246 106.226 C 263.444 106.014,271.277 60.235,271.138 60.096 C 270.920 59.878,254.688 59.579,254.688 59.793 M161.719 60.413 C 153.006 62.651,153.568 69.428,162.533 70.214 C 167.816 70.678,173.435 67.829,173.435 64.688 C 173.435 61.377,167.042 59.045,161.719 60.413 M189.643 63.881 L 181.004 65.757 180.810 67.175 C 180.703 67.956,180.463 69.473,180.276 70.547 L 179.936 72.500 176.744 72.500 L 173.552 72.500 173.000 75.547 C 172.696 77.223,172.379 78.840,172.296 79.141 C 172.160 79.635,172.446 79.688,175.284 79.688 L 178.422 79.688 178.232 80.635 C 178.128 81.156,177.032 87.098,175.796 93.838 L 173.550 106.094 181.822 106.177 C 186.371 106.223,190.168 106.186,190.258 106.096 C 190.373 105.981,195.240 80.309,195.307 79.463 C 195.310 79.426,197.123 79.482,199.336 79.588 L 203.360 79.780 204.024 76.896 C 204.389 75.310,204.774 73.672,204.878 73.256 L 205.068 72.500 200.866 72.500 L 196.664 72.500 197.551 67.423 C 198.039 64.631,198.403 62.269,198.360 62.176 C 198.317 62.082,194.394 62.849,189.643 63.881 M308.911 62.671 C 321.045 66.199,324.655 85.003,316.406 101.720 C 306.211 122.381,282.676 117.585,282.662 94.844 C 282.651 75.905,296.412 59.038,308.911 62.671 M72.344 72.207 C 66.602 72.708,60.770 73.517,60.414 73.863 C 59.933 74.328,57.061 82.165,57.288 82.392 C 57.384 82.488,59.264 82.212,61.465 81.779 C 74.275 79.258,82.785 79.506,83.066 82.407 C 83.325 85.091,81.470 85.848,72.500 86.716 C 54.453 88.464,47.815 92.499,49.824 100.501 C 51.454 106.996,66.407 108.764,77.147 103.731 C 78.592 103.054,79.825 102.500,79.887 102.500 C 79.949 102.500,80.000 103.414,80.000 104.531 L 80.000 106.563 88.750 106.563 C 97.953 106.563,98.969 106.380,96.913 105.096 C 95.584 104.267,95.624 103.502,97.562 92.656 C 100.121 78.325,100.063 76.740,96.893 74.544 C 93.412 72.131,83.754 71.212,72.344 72.207 M219.688 72.218 C 214.999 72.625,208.326 73.490,207.813 73.757 C 207.321 74.013,204.199 82.115,204.482 82.399 C 204.572 82.488,206.518 82.196,208.807 81.750 C 220.954 79.379,229.892 79.542,230.260 82.141 C 230.675 85.070,228.871 85.807,218.695 86.866 C 202.350 88.568,196.848 91.469,196.751 98.440 C 196.636 106.641,211.882 109.563,224.340 103.728 C 225.782 103.053,227.012 102.500,227.075 102.500 C 227.137 102.500,227.188 103.414,227.188 104.531 L 227.188 106.563 235.938 106.563 C 245.245 106.563,245.559 106.507,244.027 105.127 C 242.736 103.964,242.757 103.597,244.715 92.589 C 247.186 78.699,247.191 77.526,244.794 75.252 C 241.661 72.281,232.180 71.135,219.688 72.218 M128.594 73.109 C 124.652 74.122,122.829 74.933,120.504 76.708 C 119.170 77.726,119.062 77.760,119.209 77.112 C 119.734 74.804,119.986 73.547,119.992 73.203 C 119.998 72.901,118.327 72.813,112.656 72.813 C 108.617 72.813,105.313 72.879,105.313 72.961 C 105.313 73.042,103.555 82.988,101.406 95.062 C 99.258 107.137,97.500 117.197,97.500 117.419 C 97.500 117.741,99.163 117.806,105.688 117.740 L 113.877 117.656 115.111 110.469 C 116.545 102.123,116.304 102.753,117.583 103.990 C 120.668 106.975,129.170 107.832,135.536 105.800 C 152.155 100.493,155.036 76.164,139.438 72.852 C 136.904 72.314,131.155 72.450,128.594 73.109 M154.539 73.203 C 154.357 73.756,148.747 105.698,148.749 106.172 C 148.750 106.475,150.615 106.563,157.031 106.563 C 161.586 106.563,165.313 106.521,165.313 106.469 C 165.313 106.298,170.933 74.543,171.118 73.672 L 171.300 72.813 162.984 72.813 C 156.608 72.813,154.638 72.904,154.539 73.203 M392.061 81.274 C 392.989 82.045,393.488 83.495,393.479 85.400 C 393.448 91.707,385.913 97.660,377.094 98.344 L 374.657 98.532 375.458 96.403 C 379.484 85.708,388.025 77.925,392.061 81.274 M130.322 81.641 C 136.288 84.655,133.050 95.067,125.778 96.251 C 120.007 97.190,117.052 93.643,118.608 87.644 C 119.985 82.336,125.800 79.356,130.322 81.641 M81.385 92.422 C 80.472 97.611,72.899 101.187,68.406 98.551 C 64.664 96.356,67.431 93.934,75.350 92.474 C 78.152 91.958,80.508 91.471,80.587 91.392 C 81.163 90.816,81.574 91.346,81.385 92.422 M228.610 92.109 C 227.970 94.763,227.702 95.417,226.864 96.371 C 223.069 100.694,211.965 99.850,214.652 95.444 C 215.503 94.047,216.726 93.598,222.643 92.511 C 225.558 91.975,228.007 91.472,228.086 91.393 C 228.509 90.970,228.792 91.357,228.610 92.109 M267.466 106.468 C 257.127 113.679,238.176 125.916,220.000 137.117 C 213.688 141.007,211.406 142.569,211.406 142.999 C 211.406 144.133,212.449 143.736,220.174 139.663 C 235.116 131.784,273.798 110.910,274.348 110.428 C 274.419 110.366,273.967 109.270,273.344 107.993 C 272.721 106.716,272.120 105.308,272.008 104.864 C 271.685 103.576,271.537 103.628,267.466 106.468 " stroke="none" fill="#000000" fill-rule="evenodd"></path></g></svg>